<svg width="24" height="26" viewBox="0 0 24 26" fill="none" xmlns="http://www.w3.org/2000/svg">
<g clip-path="url(#clip0_241_89)">
<path d="M19.48 12.8929C17.91 8.63358 12.32 8.4039 13.67 2.21324C13.77 1.7539 13.3 1.39896 12.92 1.63907C9.29 3.87314 6.68 8.35171 8.87 14.2187C9.05 14.699 8.51 15.1479 8.12 14.8347C6.31 13.4045 6.12 11.3479 6.28 9.87588C6.34 9.33303 5.66 9.07204 5.37 9.52094C4.69 10.6067 4 12.3605 4 15.0017C4.38 20.8479 9.11 22.6435 10.81 22.8731C13.24 23.1968 15.87 22.727 17.76 20.9209C19.84 18.9061 20.6 15.6907 19.48 12.8929ZM10.2 18.144C11.64 17.7786 12.38 16.6929 12.58 15.7325C12.91 14.2396 11.62 12.7781 12.49 10.4187C12.82 12.3709 15.76 13.5924 15.76 15.722C15.84 18.3632 13.1 20.6286 10.2 18.144Z" fill="#2B255A"/>
</g>
<defs>
<clipPath id="clip0_241_89">
<rect width="24" height="25.0549" fill="white"/>
</clipPath>
</defs>
</svg>
