<svg width="71" height="86" viewBox="0 0 71 86" fill="none" xmlns="http://www.w3.org/2000/svg">
<path d="M42.7915 26.8454C43.4713 24.6939 45.7847 23.4747 47.816 24.4571C52.5979 26.7696 56.6589 30.3957 59.5001 34.9485C63.0663 40.6631 64.4765 47.4628 63.4769 54.1244C62.4773 60.7859 59.1335 66.8722 54.0471 71.2885C48.9606 75.7048 42.4653 78.1613 35.7294 78.2161C28.9935 78.2709 22.459 75.9205 17.3014 71.5875C12.1437 67.2546 8.70141 61.2235 7.59355 54.579C6.48568 47.9346 7.78499 41.1129 11.2578 35.341C14.0245 30.7426 18.026 27.0509 22.7696 24.6609C24.7847 23.6456 27.1176 24.8269 27.8323 26.9671C28.547 29.1073 27.3607 31.3879 25.4086 32.5196C22.4888 34.2123 20.0217 36.6242 18.2593 39.5535C15.7895 43.6584 14.8655 48.5098 15.6533 53.2352C16.4412 57.9605 18.8893 62.2497 22.5573 65.3312C26.2253 68.4127 30.8725 70.0843 35.6629 70.0453C40.4533 70.0064 45.0727 68.2594 48.69 65.1186C52.3074 61.9778 54.6854 57.6494 55.3963 52.9118C56.1072 48.1743 55.1043 43.3385 52.5681 39.2744C50.7582 36.3741 48.2522 34.0026 45.3053 32.3577C43.335 31.258 42.1118 28.9969 42.7915 26.8454Z" fill="#C4C4C4"/>
<path d="M42.7915 26.8454C43.4713 24.6939 45.7847 23.4747 47.816 24.4571C52.5979 26.7696 56.6589 30.3957 59.5001 34.9485C63.0663 40.6631 64.4765 47.4628 63.4769 54.1244C62.4773 60.7859 59.1335 66.8722 54.0471 71.2885C48.9606 75.7048 42.4653 78.1613 35.7294 78.2161C28.9935 78.2709 22.459 75.9205 17.3014 71.5875C12.1437 67.2546 8.70141 61.2235 7.59355 54.579C6.48568 47.9346 7.78499 41.1129 11.2578 35.341C14.0245 30.7426 18.026 27.0509 22.7696 24.6609C24.7847 23.6456 27.1176 24.8269 27.8323 26.9671C28.547 29.1073 27.3607 31.3879 25.4086 32.5196C22.4888 34.2123 20.0217 36.6242 18.2593 39.5535C15.7895 43.6584 14.8655 48.5098 15.6533 53.2352C16.4412 57.9605 18.8893 62.2497 22.5573 65.3312C26.2253 68.4127 30.8725 70.0843 35.6629 70.0453C40.4533 70.0064 45.0727 68.2594 48.69 65.1186C52.3074 61.9778 54.6854 57.6494 55.3963 52.9118C56.1072 48.1743 55.1043 43.3385 52.5681 39.2744C50.7582 36.3741 48.2522 34.0026 45.3053 32.3577C43.335 31.258 42.1118 28.9969 42.7915 26.8454Z" fill="#F29F1D"/>
<rect x="31.999" y="8.8103" width="6.9728" height="33.1387" rx="3.4864" transform="rotate(-0.248957 31.999 8.8103)" fill="#2B255A"/>
<path d="M59.1664 0C58.4048 1.39699 55.0338 4.63004 47.6427 6.38626C41.705 7.79715 38.6611 14.2828 37.4188 19.1588C37.2174 20.2232 38.9801 21.7133 47.6427 19.1588C56.3053 16.6043 58.9346 5.32189 59.1664 0Z" fill="#F2A52B"/>
</svg>
