<svg width="116" height="41" viewBox="0 0 116 41" fill="none" xmlns="http://www.w3.org/2000/svg">
<g clip-path="url(#clip0_77_35)">
<path d="M42.2986 30.0289C40.8227 30.0289 39.6606 29.4519 38.8123 28.2979C37.9811 27.1265 37.5654 25.5005 37.5654 23.4199C37.5654 20.9547 38.1846 19.0664 39.4231 17.7551C40.6785 16.4263 42.4597 15.7619 44.7669 15.7619C45.0553 15.7619 45.4879 15.7794 46.0647 15.8144V10.4905H49.6019V29.6355H46.1156L46.192 27.8783H46.0902C45.6491 28.5777 45.1062 29.1109 44.4616 29.4781C43.8339 29.8453 43.1129 30.0289 42.2986 30.0289ZM43.1129 26.8031C43.6558 26.8031 44.1817 26.567 44.6906 26.095C45.1995 25.6054 45.6576 24.9148 46.0647 24.0231V19.2237C45.4879 19.0664 44.9366 18.9877 44.4107 18.9877C43.3419 18.9877 42.5276 19.3461 41.9678 20.063C41.4249 20.7798 41.1535 21.8289 41.1535 23.2101C41.1535 24.3291 41.3231 25.212 41.6624 25.8589C42.0187 26.4883 42.5022 26.8031 43.1129 26.8031ZM54.4152 10.4905H58.5122V13.8999H54.4152V10.4905ZM52.4303 26.4621H54.8732V19.3024H52.4303V16.1291H58.4613V26.4621H60.6497V29.6355H52.4303V26.4621ZM68.9625 30.0289C66.8419 30.0289 65.1709 29.3994 63.9494 28.1406C62.7449 26.8817 62.1427 25.1333 62.1427 22.8954C62.1427 21.4442 62.4057 20.1854 62.9316 19.1188C63.4575 18.0348 64.1954 17.2043 65.1455 16.6274C66.1124 16.0504 67.2406 15.7619 68.5299 15.7619C70.43 15.7619 71.8889 16.3913 72.9068 17.6502C73.9247 18.909 74.4336 20.7274 74.4336 23.1052C74.4336 23.5073 74.4251 23.8045 74.4082 23.9969H65.7562C65.9258 24.9235 66.316 25.6316 66.9267 26.1212C67.5375 26.5932 68.3603 26.8293 69.3951 26.8293C70.0228 26.8293 70.6759 26.7506 71.3545 26.5932C72.0331 26.4184 72.6269 26.1911 73.1358 25.9114L73.7211 28.8749C73.0425 29.2421 72.2876 29.5218 71.4563 29.7141C70.642 29.924 69.8107 30.0289 68.9625 30.0289ZM70.9983 21.2169C70.9474 20.4651 70.6929 19.8706 70.2349 19.4335C69.7768 18.979 69.1661 18.7517 68.4027 18.7517C67.6732 18.7517 67.0709 18.9702 66.5959 19.4073C66.1379 19.8444 65.8495 20.4476 65.7307 21.2169H70.9983ZM81.9272 30.0289C80.7057 30.0289 79.7557 29.7141 79.0771 29.0847C78.4155 28.4378 78.0847 27.5286 78.0847 26.3572V19.3024H76.0489V16.1291H78.0847V13.2442C79.2892 13.0344 80.4767 12.877 81.6473 12.7721V16.1291H84.9554V19.3024H81.6473V25.6753C81.6473 26.0425 81.7491 26.3222 81.9526 26.5146C82.1732 26.7069 82.4785 26.8031 82.8687 26.8031C83.3437 26.8031 83.8866 26.6894 84.4973 26.4621L85.2862 29.2421C84.2005 29.7666 83.0808 30.0289 81.9272 30.0289Z" fill="#2B255A"/>
<path d="M93.885 30.0287C92.5617 30.0287 91.3912 29.7314 90.3733 29.137C89.3724 28.5425 88.592 27.712 88.0321 26.6455C87.4723 25.5615 87.1924 24.3114 87.1924 22.8952C87.1924 21.479 87.4638 20.2376 88.0067 19.1711C88.5665 18.0871 89.3469 17.2479 90.3478 16.6534C91.3657 16.0589 92.5363 15.7617 93.8595 15.7617C95.1828 15.7617 96.3448 16.0589 97.3458 16.6534C98.3636 17.2304 99.144 18.0521 99.6869 19.1186C100.247 20.1852 100.527 21.4178 100.527 22.8165C100.527 24.2327 100.247 25.4916 99.6869 26.5931C99.144 27.6771 98.3636 28.525 97.3458 29.137C96.3448 29.7314 95.1912 30.0287 93.885 30.0287ZM93.8595 26.8291C94.7756 26.8291 95.5051 26.4707 96.048 25.7538C96.6078 25.0195 96.8877 24.0579 96.8877 22.869C96.8877 21.6801 96.6078 20.7359 96.048 20.0366C95.5051 19.3197 94.7756 18.9613 93.8595 18.9613C92.9434 18.9613 92.2055 19.3197 91.6456 20.0366C91.1028 20.7359 90.8313 21.6801 90.8313 22.869C90.8313 24.0579 91.1028 25.0195 91.6456 25.7538C92.2055 26.4707 92.9434 26.8291 93.8595 26.8291ZM103.186 16.1289H106.698V18.463C107.24 17.5363 107.868 16.8545 108.581 16.4174C109.293 15.9803 110.124 15.7617 111.074 15.7617C112.483 15.7617 113.585 16.1988 114.383 17.073C115.18 17.9297 115.579 19.1274 115.579 20.666V29.6353H111.991V21.243C111.991 20.5436 111.821 20.0016 111.482 19.6169C111.142 19.2148 110.684 19.0137 110.107 19.0137C109.429 19.0137 108.784 19.276 108.173 19.8005C107.563 20.325 107.096 20.9894 106.774 21.7937V29.6353H103.186V16.1289Z" fill="#C4C4C4"/>
<path d="M93.885 30.0287C92.5617 30.0287 91.3912 29.7314 90.3733 29.137C89.3724 28.5425 88.592 27.712 88.0321 26.6455C87.4723 25.5615 87.1924 24.3114 87.1924 22.8952C87.1924 21.479 87.4638 20.2376 88.0067 19.1711C88.5665 18.0871 89.3469 17.2479 90.3478 16.6534C91.3657 16.0589 92.5363 15.7617 93.8595 15.7617C95.1828 15.7617 96.3448 16.0589 97.3458 16.6534C98.3636 17.2304 99.144 18.0521 99.6869 19.1186C100.247 20.1852 100.527 21.4178 100.527 22.8165C100.527 24.2327 100.247 25.4916 99.6869 26.5931C99.144 27.6771 98.3636 28.525 97.3458 29.137C96.3448 29.7314 95.1912 30.0287 93.885 30.0287ZM93.8595 26.8291C94.7756 26.8291 95.5051 26.4707 96.048 25.7538C96.6078 25.0195 96.8877 24.0579 96.8877 22.869C96.8877 21.6801 96.6078 20.7359 96.048 20.0366C95.5051 19.3197 94.7756 18.9613 93.8595 18.9613C92.9434 18.9613 92.2055 19.3197 91.6456 20.0366C91.1028 20.7359 90.8313 21.6801 90.8313 22.869C90.8313 24.0579 91.1028 25.0195 91.6456 25.7538C92.2055 26.4707 92.9434 26.8291 93.8595 26.8291ZM103.186 16.1289H106.698V18.463C107.24 17.5363 107.868 16.8545 108.581 16.4174C109.293 15.9803 110.124 15.7617 111.074 15.7617C112.483 15.7617 113.585 16.1988 114.383 17.073C115.18 17.9297 115.579 19.1274 115.579 20.666V29.6353H111.991V21.243C111.991 20.5436 111.821 20.0016 111.482 19.6169C111.142 19.2148 110.684 19.0137 110.107 19.0137C109.429 19.0137 108.784 19.276 108.173 19.8005C107.563 20.325 107.096 20.9894 106.774 21.7937V29.6353H103.186V16.1289Z" fill="#F29F1D"/>
<path d="M19.5255 12.0282C19.821 11.0641 20.8267 10.5179 21.7098 10.958C23.7887 11.9941 25.5543 13.6188 26.7895 15.6587C28.3399 18.2192 28.9529 21.2658 28.5184 24.2506C28.0838 27.2354 26.6301 29.9624 24.4188 31.9411C22.2074 33.9199 19.3836 35.0205 16.4552 35.0451C13.5267 35.0696 10.6859 34.0165 8.44363 32.0751C6.20136 30.1337 4.70481 27.4314 4.22318 24.4543C3.74153 21.4773 4.3064 18.4207 5.81619 15.8346C7.019 13.7743 8.75867 12.1202 10.8209 11.0493C11.697 10.5945 12.7112 11.1237 13.0219 12.0826C13.3327 13.0416 12.8169 14.0635 11.9683 14.5705C10.6989 15.3289 9.62629 16.4096 8.86007 17.7221C7.78635 19.5613 7.38463 21.735 7.72715 23.8522C8.06969 25.9695 9.13399 27.8912 10.7287 29.2719C12.3233 30.6526 14.3437 31.4016 16.4263 31.3841C18.5089 31.3666 20.5171 30.5839 22.0898 29.1766C23.6625 27.7694 24.6963 25.83 25.0053 23.7073C25.3144 21.5846 24.8784 19.4179 23.7758 17.597C22.9889 16.2975 21.8994 15.235 20.6182 14.4979C19.7617 14.0052 19.2299 12.9921 19.5255 12.0282Z" fill="#C4C4C4"/>
<path d="M19.5255 12.0282C19.821 11.0641 20.8267 10.5179 21.7098 10.958C23.7887 11.9941 25.5543 13.6188 26.7895 15.6587C28.3399 18.2192 28.9529 21.2658 28.5184 24.2506C28.0838 27.2354 26.6301 29.9624 24.4188 31.9411C22.2074 33.9199 19.3836 35.0205 16.4552 35.0451C13.5267 35.0696 10.6859 34.0165 8.44363 32.0751C6.20136 30.1337 4.70481 27.4314 4.22318 24.4543C3.74153 21.4773 4.3064 18.4207 5.81619 15.8346C7.019 13.7743 8.75867 12.1202 10.8209 11.0493C11.697 10.5945 12.7112 11.1237 13.0219 12.0826C13.3327 13.0416 12.8169 14.0635 11.9683 14.5705C10.6989 15.3289 9.62629 16.4096 8.86007 17.7221C7.78635 19.5613 7.38463 21.735 7.72715 23.8522C8.06969 25.9695 9.13399 27.8912 10.7287 29.2719C12.3233 30.6526 14.3437 31.4016 16.4263 31.3841C18.5089 31.3666 20.5171 30.5839 22.0898 29.1766C23.6625 27.7694 24.6963 25.83 25.0053 23.7073C25.3144 21.5846 24.8784 19.4179 23.7758 17.597C22.9889 16.2975 21.8994 15.235 20.6182 14.4979C19.7617 14.0052 19.2299 12.9921 19.5255 12.0282Z" fill="#F29F1D"/>
<path d="M16.3487 3.94072L16.3487 3.94072C15.5116 3.94447 14.836 4.64688 14.8396 5.50959L14.889 17.2332C14.8927 18.0959 15.5742 18.7923 16.4113 18.7885L16.4113 18.7885C17.2484 18.7848 17.9241 18.0824 17.9204 17.2197L17.871 5.49602C17.8673 4.6333 17.1858 3.93697 16.3487 3.94072Z" fill="#2B255A"/>
<path d="M25.9023 0C25.5772 0.61194 24.138 2.02815 20.9825 2.79744C18.4476 3.41547 17.148 6.25644 16.6177 8.39232C16.5317 8.85854 17.2842 9.5113 20.9825 8.39232C24.6808 7.27335 25.8033 2.3312 25.9023 0Z" fill="#F2A52B"/>
</g>
<defs>
<clipPath id="clip0_77_35">
<rect width="114.681" height="41" fill="white" transform="translate(0.921875)"/>
</clipPath>
</defs>
</svg>
