<svg width="20" height="19" viewBox="0 0 20 19" fill="none" xmlns="http://www.w3.org/2000/svg">
<path d="M12.9167 10.9455H12.2583L12.025 10.7344C12.8417 9.84316 13.3333 8.68606 13.3333 7.42732C13.3333 4.62057 10.9083 2.34546 7.91667 2.34546C4.925 2.34546 2.5 4.62057 2.5 7.42732C2.5 10.2341 4.925 12.5092 7.91667 12.5092C9.25833 12.5092 10.4917 12.0479 11.4417 11.2817L11.6667 11.5006V12.1183L15.8333 16.0196L17.075 14.8547L12.9167 10.9455V10.9455ZM7.91667 10.9455C5.84167 10.9455 4.16667 9.37407 4.16667 7.42732C4.16667 5.48058 5.84167 3.90911 7.91667 3.90911C9.99167 3.90911 11.6667 5.48058 11.6667 7.42732C11.6667 9.37407 9.99167 10.9455 7.91667 10.9455Z" fill="#2B255A"/>
</svg>
